<mxfile host="Electron" modified="2023-10-12T15:00:03.180Z" agent="Mozilla/5.0 (Windows NT 10.0; Win64; x64) AppleWebKit/537.36 (KHTML, like Gecko) draw.io/22.0.2 Chrome/114.0.5735.289 Electron/25.8.4 Safari/537.36" etag="Jl3DUcvQNqkWQzziurLu" version="22.0.2" type="device">
  <diagram name="Strona-1" id="qNM3ejoKnuvfcM9Xa8Zc">
    <mxGraphModel dx="913" dy="547" grid="1" gridSize="10" guides="1" tooltips="1" connect="1" arrows="1" fold="1" page="1" pageScale="1" pageWidth="827" pageHeight="1169" math="0" shadow="0">
      <root>
        <mxCell id="0" />
        <mxCell id="1" parent="0" />
        <mxCell id="6u3VCSXgPgQVvDEs7AS1-1" value="&lt;p style=&quot;margin: 0px ; margin-top: 4px ; margin-left: 10px ; text-align: left&quot;&gt;&lt;b&gt;Get sticker component&lt;/b&gt;&lt;/p&gt;" style="html=1;strokeWidth=1;shape=mxgraph.sysml.package;html=1;overflow=fill;whiteSpace=wrap;fillColor=none;gradientColor=none;fontSize=12;align=center;labelX=327.64;" vertex="1" parent="1">
          <mxGeometry x="194" y="210" width="440" height="590" as="geometry" />
        </mxCell>
        <mxCell id="6u3VCSXgPgQVvDEs7AS1-2" value="" style="ellipse;html=1;shape=startState;fillColor=#000000;strokeColor=#ff0000;" vertex="1" parent="1">
          <mxGeometry x="399" y="270" width="30" height="30" as="geometry" />
        </mxCell>
        <mxCell id="6u3VCSXgPgQVvDEs7AS1-3" value="" style="edgeStyle=orthogonalEdgeStyle;html=1;verticalAlign=bottom;endArrow=open;endSize=8;strokeColor=#ff0000;rounded=0;" edge="1" source="6u3VCSXgPgQVvDEs7AS1-2" parent="1">
          <mxGeometry relative="1" as="geometry">
            <mxPoint x="414" y="340" as="targetPoint" />
          </mxGeometry>
        </mxCell>
        <mxCell id="6u3VCSXgPgQVvDEs7AS1-4" value="Assign sticker&lt;br&gt;to image" style="html=1;whiteSpace=wrap;" vertex="1" parent="1">
          <mxGeometry x="359" y="350" width="110" height="50" as="geometry" />
        </mxCell>
        <mxCell id="6u3VCSXgPgQVvDEs7AS1-7" value="" style="shape=line;html=1;strokeWidth=6;strokeColor=#ff0000;" vertex="1" parent="1">
          <mxGeometry x="314" y="440" width="200" height="10" as="geometry" />
        </mxCell>
        <mxCell id="6u3VCSXgPgQVvDEs7AS1-8" value="" style="edgeStyle=orthogonalEdgeStyle;html=1;verticalAlign=bottom;endArrow=open;endSize=8;strokeColor=#ff0000;rounded=0;" edge="1" source="6u3VCSXgPgQVvDEs7AS1-7" parent="1">
          <mxGeometry relative="1" as="geometry">
            <mxPoint x="414" y="745" as="targetPoint" />
          </mxGeometry>
        </mxCell>
        <mxCell id="6u3VCSXgPgQVvDEs7AS1-11" value="" style="ellipse;html=1;shape=endState;fillColor=#000000;strokeColor=#ff0000;" vertex="1" parent="1">
          <mxGeometry x="399" y="750" width="30" height="30" as="geometry" />
        </mxCell>
        <mxCell id="6u3VCSXgPgQVvDEs7AS1-12" value="" style="edgeStyle=orthogonalEdgeStyle;html=1;verticalAlign=bottom;endArrow=open;endSize=8;strokeColor=#ff0000;rounded=0;entryX=0.5;entryY=0;entryDx=0;entryDy=0;" edge="1" parent="1" target="6u3VCSXgPgQVvDEs7AS1-14">
          <mxGeometry relative="1" as="geometry">
            <mxPoint x="359" y="520" as="targetPoint" />
            <mxPoint x="359" y="450" as="sourcePoint" />
            <Array as="points">
              <mxPoint x="359" y="500" />
              <mxPoint x="295" y="500" />
            </Array>
          </mxGeometry>
        </mxCell>
        <mxCell id="6u3VCSXgPgQVvDEs7AS1-25" value="IP address not found&lt;br&gt;exception" style="edgeLabel;html=1;align=center;verticalAlign=middle;resizable=0;points=[];" vertex="1" connectable="0" parent="6u3VCSXgPgQVvDEs7AS1-12">
          <mxGeometry x="-0.0274" y="2" relative="1" as="geometry">
            <mxPoint x="-24" y="18" as="offset" />
          </mxGeometry>
        </mxCell>
        <mxCell id="6u3VCSXgPgQVvDEs7AS1-26" value="Exception" style="edgeLabel;html=1;align=center;verticalAlign=middle;resizable=0;points=[];" vertex="1" connectable="0" parent="6u3VCSXgPgQVvDEs7AS1-12">
          <mxGeometry x="-0.0274" y="2" relative="1" as="geometry">
            <mxPoint x="216" y="18" as="offset" />
          </mxGeometry>
        </mxCell>
        <mxCell id="6u3VCSXgPgQVvDEs7AS1-13" value="" style="edgeStyle=orthogonalEdgeStyle;html=1;verticalAlign=bottom;endArrow=open;endSize=8;strokeColor=#ff0000;rounded=0;entryX=0.5;entryY=0;entryDx=0;entryDy=0;" edge="1" parent="1" target="6u3VCSXgPgQVvDEs7AS1-15">
          <mxGeometry relative="1" as="geometry">
            <mxPoint x="480" y="520" as="targetPoint" />
            <mxPoint x="480" y="450" as="sourcePoint" />
            <Array as="points">
              <mxPoint x="480" y="500" />
              <mxPoint x="545" y="500" />
            </Array>
          </mxGeometry>
        </mxCell>
        <mxCell id="6u3VCSXgPgQVvDEs7AS1-14" value="Log error" style="html=1;whiteSpace=wrap;" vertex="1" parent="1">
          <mxGeometry x="240" y="560" width="110" height="50" as="geometry" />
        </mxCell>
        <mxCell id="6u3VCSXgPgQVvDEs7AS1-15" value="Log unhandled&lt;br&gt;error" style="html=1;whiteSpace=wrap;" vertex="1" parent="1">
          <mxGeometry x="490" y="560" width="110" height="50" as="geometry" />
        </mxCell>
        <mxCell id="6u3VCSXgPgQVvDEs7AS1-16" value="Assing image&lt;br&gt;not found icon" style="html=1;whiteSpace=wrap;" vertex="1" parent="1">
          <mxGeometry x="240" y="640" width="110" height="50" as="geometry" />
        </mxCell>
        <mxCell id="6u3VCSXgPgQVvDEs7AS1-18" value="" style="edgeStyle=orthogonalEdgeStyle;html=1;verticalAlign=bottom;endArrow=open;endSize=8;strokeColor=#ff0000;rounded=0;exitX=0.5;exitY=1;exitDx=0;exitDy=0;entryX=1;entryY=0.5;entryDx=0;entryDy=0;" edge="1" parent="1" source="6u3VCSXgPgQVvDEs7AS1-15" target="6u3VCSXgPgQVvDEs7AS1-11">
          <mxGeometry relative="1" as="geometry">
            <mxPoint x="544.77" y="1015" as="targetPoint" />
            <mxPoint x="544.77" y="720" as="sourcePoint" />
          </mxGeometry>
        </mxCell>
        <mxCell id="6u3VCSXgPgQVvDEs7AS1-19" value="" style="html=1;verticalAlign=bottom;endArrow=open;endSize=8;strokeColor=#ff0000;rounded=0;" edge="1" parent="1">
          <mxGeometry relative="1" as="geometry">
            <mxPoint x="295" y="635" as="targetPoint" />
            <mxPoint x="294.77" y="615" as="sourcePoint" />
          </mxGeometry>
        </mxCell>
        <mxCell id="6u3VCSXgPgQVvDEs7AS1-20" value="" style="html=1;verticalAlign=bottom;endArrow=open;endSize=8;strokeColor=#ff0000;rounded=0;exitX=0.5;exitY=1;exitDx=0;exitDy=0;edgeStyle=orthogonalEdgeStyle;entryX=0;entryY=0.5;entryDx=0;entryDy=0;" edge="1" parent="1" source="6u3VCSXgPgQVvDEs7AS1-16" target="6u3VCSXgPgQVvDEs7AS1-11">
          <mxGeometry relative="1" as="geometry">
            <mxPoint x="295" y="730" as="targetPoint" />
            <mxPoint x="294.77" y="710" as="sourcePoint" />
          </mxGeometry>
        </mxCell>
        <mxCell id="6u3VCSXgPgQVvDEs7AS1-21" value="" style="html=1;verticalAlign=bottom;endArrow=open;endSize=8;strokeColor=#ff0000;rounded=0;" edge="1" parent="1">
          <mxGeometry relative="1" as="geometry">
            <mxPoint x="414" y="435" as="targetPoint" />
            <mxPoint x="413.77" y="405" as="sourcePoint" />
          </mxGeometry>
        </mxCell>
        <mxCell id="6u3VCSXgPgQVvDEs7AS1-24" value="&lt;font color=&quot;#000000&quot;&gt;try&lt;/font&gt;" style="html=1;whiteSpace=wrap;fillColor=#a20025;fontColor=#ffffff;strokeColor=default;" vertex="1" parent="1">
          <mxGeometry x="439" y="330" width="30" height="20" as="geometry" />
        </mxCell>
      </root>
    </mxGraphModel>
  </diagram>
</mxfile>
